<?xml version="1.0" encoding="UTF-8"?>
<svg id="Capa_1" xmlns="http://www.w3.org/2000/svg" viewBox="0 0 1139.89 387.15">
  <defs>
    <style>
      .cls-1 {
        fill: #fdfdfb;
      }

      .cls-2 {
        fill: #ffa300;
      }
    </style>
  </defs>
  <g>
    <path class="cls-1" d="M367.51,285.01l-13.41,39.12h3.2l3.55-10.56h16.91l3.55,10.56h3.2l-13.41-39.12h-3.6ZM361.79,310.88l7.4-22.02h.25l7.4,22.02h-15.04Z"/>
    <path class="cls-1" d="M402.47,302.95l-4.44-1.01c-5.03-1.12-7-3.69-7-7.32,0-4.02,2.51-7.15,8.43-7.15s8.43,3.13,8.68,6.98h2.91c0-5.81-4.04-9.95-11.59-9.95s-11.54,4.19-11.54,10.11c0,5.25,2.96,8.66,9.17,10.11l4.49,1.01c4.29,1.01,7.45,2.91,7.45,7.82s-2.96,8.16-9.22,8.16c-6.71,0-9.66-3.8-9.91-8.49h-3.01c0,6.43,4.29,11.46,12.87,11.46,7.89,0,12.38-4.3,12.38-11.18s-3.94-9.28-9.66-10.56Z"/>
    <polygon class="cls-1" points="414.26 288.14 425.45 288.14 425.45 324.13 428.46 324.13 428.46 288.14 439.65 288.14 439.65 285.01 414.26 285.01 414.26 288.14"/>
    <path class="cls-1" d="M468,296.74c0-7.38-4.09-11.73-11.83-11.73h-12.18v39.12h3.01v-15.7h9.91l8.23,15.7h3.11l-8.43-16.09c5.32-1.17,8.18-5.25,8.18-11.29ZM456.07,305.35h-9.07v-17.27h9.07c5.82,0,8.87,2.96,8.87,8.66s-3.06,8.61-8.87,8.61Z"/>
    <path class="cls-1" d="M484.28,285.01l-13.41,39.12h3.2l3.55-10.56h16.91l3.55,10.56h3.2l-13.41-39.12h-3.6ZM478.56,310.88l7.4-22.02h.25l7.4,22.02h-15.04Z"/>
    <polygon class="cls-1" points="508.39 285.01 505.38 285.01 505.38 324.13 526.63 324.13 526.63 321.05 508.39 321.05 508.39 285.01"/>
    <path class="cls-1" d="M554.3,285.01l-13.41,39.12h3.2l3.55-10.56h16.91l3.55,10.56h3.2l-13.41-39.12h-3.6ZM548.58,310.88l7.4-22.02h.25l7.4,22.02h-15.04Z"/>
    <polygon class="cls-1" points="611.05 285.01 603.06 319.38 602.92 319.38 593.69 285.01 590.39 285.01 581.12 319.38 580.97 319.38 572.99 285.01 569.88 285.01 579.25 324.13 582.55 324.13 592.02 289.37 601.49 324.13 604.84 324.13 614.16 285.01 611.05 285.01"/>
    <path class="cls-1" d="M626.14,285.01l-13.41,39.12h3.2l3.55-10.56h16.91l3.55,10.56h3.2l-13.41-39.12h-3.6ZM620.42,310.88l7.4-22.02h.25l7.4,22.02h-15.04Z"/>
    <polygon class="cls-1" points="672.2 285.01 668.55 285.01 650.26 307.86 650.26 285.01 647.25 285.01 647.25 324.13 650.26 324.13 650.26 312.39 655.68 305.63 669.83 324.13 673.43 324.13 657.6 303.23 672.2 285.01"/>
    <polygon class="cls-1" points="680.53 305.41 697.49 305.41 697.49 302.5 680.53 302.5 680.53 288.08 698.97 288.08 698.97 285.01 677.53 285.01 677.53 324.13 699.47 324.13 699.47 321.05 680.53 321.05 680.53 305.41"/>
    <polygon class="cls-1" points="727.33 319.1 727.23 319.1 707.61 285.01 704.06 285.01 704.06 324.13 707.06 324.13 707.06 290.09 707.21 290.09 726.74 324.13 730.34 324.13 730.34 285.01 727.33 285.01 727.33 319.1"/>
    <rect class="cls-1" x="736.4" y="285.01" width="3.01" height="39.12"/>
    <polygon class="cls-1" points="768.8 319.1 768.7 319.1 749.07 285.01 745.52 285.01 745.52 324.13 748.53 324.13 748.53 290.09 748.68 290.09 768.2 324.13 771.8 324.13 771.8 285.01 768.8 285.01 768.8 319.1"/>
    <path class="cls-1" d="M794.19,307.42h9.32c0,9.61-4.24,14.25-11.09,14.25-7.49,0-12.52-5.7-12.52-17.1s4.98-17.04,12.47-17.04c5.18,0,8.33,2.57,9.71,6.82h2.96c-1.48-6.37-6.06-9.83-12.67-9.83-9.07,0-15.48,6.71-15.48,20.06s6.31,20.12,15.53,20.12,14-6.15,14-17.83v-2.35h-12.23v2.91Z"/>
  </g>
  <g>
    <path class="cls-2" d="M891.08,216.35c-2.33-1.03-3.64.12-4.79,2.17-.96,1.19-1.34,2.08-2.93,3.37-24.74,14.96-52.63-23.72-58.06-44.8,64.12,39.1,104.49-114.45-.66-114.45l-27.24.25h-48.05c0,2.96-.05,5.02-.05,5.02,0,0,16.98-2.15,16.98,16.16,0,0,0,152.12,0,152.12,0,17.18-18.56,15.37-18.56,15.37v.11c-41.36-5.92-61.22-170.42-92.15-188.65-10.01,13.07-24.93,52.03-39.5,86.96-6.67,18.84-17.6,27.47,17.68,33.44-45.68,6.45-40.46,65.8-71.14,67.54-5.23-1.26-11.41-4.85-11.41-14.77,0,0,0-152.12,0-152.12,0-18.31,16.98-16.16,16.98-16.16,0,0-.05-2.06-.05-5.02h-55.18c0,2.96-.05,5.02-.05,5.02,0,0,16.98-2.15,16.98,16.16,0,0,0,152.12,0,152.12,0,17.18-18.56,15.37-18.56,15.37v6.04l26.15.1v.02h3.07s3.07,0,3.07,0v-.02l18.38-.07v.1c.61-.05,1.31-.08,2.07-.11l5.71-.02v-.08c4.22-.04,8.63-.1,10.85-.54,26.17-16.61,26.1-70.89,86.69-69.27,2.37-.79,2.84-7.48,0-8.6-15.87.6-47.39-1.05-41.95-15.45,7.2-20.71,17.83-44.53,30.19-67.2,21.75,47.19,25.26,124.42,61.87,154.49,8.03,6.54,15.66,6.77,31.47,6.77,0-.04,0-.08,0-.12l24.97.1v.02h3.07s3.07,0,3.07,0v-.02l26.15-.1v-6.04s-18.56,1.81-18.56-15.37c0,0,0-152.12,0-152.12,0-10.11,5.18-13.97,9.82-15.42l23.24-.1c76.71,4.93,36.83,120.36,4.26,88.84-9.32-13.27-8.48-37.42-21.81-47.77-2.32-1.8-5.7-.19-5.7,2.75,0,1.93.67,3.8,1.92,5.26,25.78,30.05,4.04,117.6,74.75,139.8,7.84,3.59,13.1-13.16,16.55-23.92.6-1.07,3.63-15.75.45-17.15Z"/>
    <path class="cls-2" d="M470.48,73.81c-14.3-10.2-33.41-11.78-59.41-11.93h0s-24.52-.01-24.52-.01h-30.66c0,2.96-.05,5.02-.05,5.02,0,0,16.98-2.15,16.98,16.16,0,0,0,152.12,0,152.12,0,17.18-18.57,15.37-18.57,15.37v6.04l26.15.1v.02h3.07s3.07,0,3.07,0v-.02l8.06-.03-.16.06c16.6,0,31.42,0,31.42,0,81.25-.47,106.23-138.94,44.61-182.9ZM411.64,250.59c-3.94.07-17.5-.73-17.5-15.42,0,0,0-152.12,0-152.12,0-11.4,6.58-14.87,11.55-15.86,1.76-.14,3.47-.25,5.15-.33.18.01.28.03.28.03,0,0,0-.02,0-.04,14.61-.6,26.33,1.82,39.15,13.3,10.28,9.2,17.67,21.19,21.71,34.39,16.01,52.28,2.91,118.89-60.35,136.06Z"/>
    <path class="cls-2" d="M219.3,110.6c-8.6,37.14,11.25,78.61,50.21,89.73,18.76,5.35,34.56,3.33,49.13-5.14,3.57-1.67,3.96-4.22,2.78-8.31-.25-.86-1.24-1.24-2.01-.78-3.85,2.33-8.85,3.66-14.26,4.14-18.05,1.59-35.48-6.99-45.85-21.86-14.71-21.11-19.91-48.66-19.64-63.71,4.53-79.33,127.47,12.55,94.83,66.79-3.19-6.76-6.17-10.68-11.88-16.09-6.67-6.41-8.75-7.6-19.5-15.24-1.55-1.39-3.02-2.55-4.38-3.52,3.9-2.2,8.81-4.19,11.23-5.05l3.6-1.29-3.62-1.22c-5.52-1.86-14.89-5.96-16.53-9.01-2.38-4.43-5-15.29-5.03-15.4l-1.11-4.62-1.12,4.61c-.03.11-2.69,10.97-5.07,15.4-1.64,3.04-10.98,7.14-16.49,9.01l-3.6,1.22,3.58,1.28c3.96,1.42,14.65,5.87,16.5,9.34,2.34,4.39,5.05,14.98,5.08,15.09l1.12,4.4,1.1-4.4c.03-.11,2.62-10.38,4.93-14.88,1.23.9,2.67,1.82,4.35,2.76,19.34,15.65,32.35,23.73,34.6,44.13.03.87.16,2.11.28,3.65,1.81,22.29-13.3,42.73-35.27,46.87-.49.09-.98.18-1.47.25-7.65,1.2-15.05,1.05-20.72.42-25.69-2.84-42.41-12.45-55.95-17.06-30.61-10.43-59.59-25.88-98.74-4.62,31.19-48.42,69.74-108.66,109.49-150.37,5.16-1.92,6.99.6,6.67-7.05-2.87-.14-173.67-11.39-181.51,5.46-6.55,18.14,16.38,23.67,24.1,32.29,3.13,1.55,4.43-1.2,3.83-2.34-21.44-41.07,114.68-27.42,119.67-27.62-46.61,50.92-91.72,123.05-129.35,182.13-1.03,4.29,3.07,5.93,5.1,4.31,53.88-64.35,111.99-6.23,169.76-.97,54.89,6.06,100.3-5.16,90.1-71.08C419.2,94.44,260.04.25,219.3,110.6Z"/>
    <path class="cls-2" d="M1084.16,230.39c-13.71,4.52-51.64,14.27-71.91-7.9-8.1-8.96-15-26.8-21.11-39.48-3.11-6.46-8.23-11.74-14.6-15.03-5.57-2.88-11.58-5.2-16.81-6.32,67.61-13.6,85.72-110.11,112.91-65.58,1.96,5.5,4.83,5.15,6.14-.56,6.55-18.84,5.16-27.98-13.91-35.08-40.49-2.11-36.13,33.56-101.8,89.69-1.94,1.39-6.57,4.55-8.51,5.94-2.72,1.96-5.04,3.54-5.04,3.54,0,0,.01-3.26.01-9.78v-65.78c0-18.31,16.98-16.16,16.98-16.16,0,0-.05-2.06-.05-5.02h-55.18c0,2.96-.05,5.02-.05,5.02,0,0,16.98-2.15,16.98,16.16,0,0,0,152.12,0,152.12,0,17.18-18.57,15.37-18.57,15.37v6.04l26.15.11v.02h3.06s3.08,0,3.08,0v-.02l26.15-.1v-6.04s-18.56,1.81-18.56-15.37v-64.7c2.11.39,4.22.71,6.01,1.31,4.4,1.49,10.34,3.52,13.39,7.26,3.3,4.05,4.83,10.07,6.8,14.83.09.21.19.4.3.59,5.49,20.13,14.41,39.15,32.71,51.64,8.01,5.36,14.97,10.49,26.14,10.49,26.48-.34,40.6-14.93,48.82-23.02.02-.02.03-.03.05-.05.56-.48,1.21-1.12,1.86-1.81,1.01-1.07-.07-2.78-1.46-2.32Z"/>
  </g>
</svg>